<?xml version="1.0" encoding="utf-8"?>
<!-- Generator: Adobe Illustrator 16.0.0, SVG Export Plug-In . SVG Version: 6.00 Build 0)  -->
<!DOCTYPE svg PUBLIC "-//W3C//DTD SVG 1.1//EN" "http://www.w3.org/Graphics/SVG/1.1/DTD/svg11.dtd">
<svg version="1.1" id="Layer_1" xmlns="http://www.w3.org/2000/svg" xmlns:xlink="http://www.w3.org/1999/xlink" x="0px" y="0px"
	 width="48px" height="48px" viewBox="0 0 48 48" enable-background="new 0 0 48 48" xml:space="preserve">
<g transform="translate(0.000000,200.000000) scale(0.100000,-0.100000)">
	<path fill="#FFFFFF" d="M143.799,1996.411c-3.584-1.904-7.642-7.153-9.321-11.699l-3.096-8.354l-34.155-0.718l-34.146-0.713
		l-7.642-7.881l-7.876-7.646v-171.943v-171.929l7.876-7.646l7.642-7.881h155.22h155.225l7.637,7.881l7.891,7.646l0.703,90.264
		l0.713,90.029l-14.57-14.321l-14.316-14.097v-69.971v-69.971H218.301H75.024v159.995v160.005h28.179h28.179l3.096-8.364
		c5.254-14.8,8.604-15.518,83.823-15.518c75.225,0,78.574,0.718,83.818,15.518l3.105,8.364h28.184h28.174v-24.36v-24.351
		l14.57,14.087l14.57,14.331l-0.967,16.235c-0.703,14.331-1.66,16.948-8.594,23.872l-7.637,7.651l-34.16,0.713l-34.141,0.718
		l-3.105,8.354c-5.244,14.57-8.838,15.288-84.297,15.288C163.374,1999.76,149.058,1999.043,143.799,1996.411z M275.605,1961.792
		v-9.556h-57.305h-57.314v9.556v9.551h57.314h57.305V1961.792z"/>
	<path fill="#FFFFFF" d="M399.326,1901.616c-2.148-1.68-12.197-14.81-22.461-29.136c-10.029-14.331-25.781-33.677-34.863-42.988
		l-16.24-16.958l7.871-7.632l7.646-7.886l20.303,19.814c11.221,10.752,30.811,26.992,43.467,35.83
		c12.9,8.838,24.59,18.379,25.781,21.006C439.189,1888.955,412.92,1912.119,399.326,1901.616z"/>
	<path fill="#FFFFFF" d="M228.335,1773.379l-74.751-27.715l16.719-7.627l16.943-7.646l30.576,14.326
		c16.709,7.881,32.959,15.518,36.289,16.719l5.977,2.148l-5.723-4.307c-3.35-2.139-16.729-11.455-29.619-20.537l-23.633-16.23
		l11.455-6.934c6.445-3.809,12.661-6.924,13.618-6.924c1.191,0,15.518,11.465,32.222,25.557
		c30.82,25.801,29.619,23.398-7.393-15.039l-16.235-16.963l12.651-9.551l12.9-9.795l13.848,22.461
		c14.326,23.398,18.154,27.93,12.422,14.795c-1.924-4.297-6.699-15.996-10.996-25.791l-7.627-17.91l8.818-7.637
		c5.029-4.297,9.336-7.646,9.805-7.402c0.225,0.479,10.273,27.451,22.441,60.166l21.729,59.468l-10.254,10.513
		c-5.498,5.493-11.719,10.02-13.867,10.02C304.746,1801.313,269.404,1788.652,228.335,1773.379z"/>
</g>
</svg>
