<?xml version="1.0" encoding="utf-8"?>
<!-- Generator: Adobe Illustrator 16.0.0, SVG Export Plug-In . SVG Version: 6.00 Build 0)  -->
<!DOCTYPE svg PUBLIC "-//W3C//DTD SVG 1.1//EN" "http://www.w3.org/Graphics/SVG/1.1/DTD/svg11.dtd">
<svg version="1.1" id="Layer_1" xmlns="http://www.w3.org/2000/svg" xmlns:xlink="http://www.w3.org/1999/xlink" x="0px" y="0px"
	 width="48px" height="48px" viewBox="0 0 48 48" enable-background="new 0 0 48 48" xml:space="preserve">
<g>
	<g>
		<polygon points="29.277,27.356 18.723,27.356 6.232,11.346 41.768,11.346 		"/>
		<path d="M29.517,27.796H18.723h-0.241l-0.105-0.169c-1.806-2.884-3.825-5.602-5.899-8.274c-2.093-2.659-4.238-5.278-6.59-7.735
			l-0.68-0.71h1.026h35.535h1.031l-0.684,0.71c-2.361,2.452-4.506,5.07-6.592,7.735c-2.068,2.678-4.086,5.397-5.899,8.274
			L29.517,27.796z M29.082,26.916c2.289-2.412,4.391-4.967,6.438-7.566c2.078-2.671,4.097-5.389,5.899-8.274l0.348,0.711H6.232
			l0.347-0.711c1.811,2.88,3.83,5.598,5.899,8.275c2.089,2.663,4.233,5.281,6.591,7.734l-0.347-0.169H29.082z"/>
	</g>
	<g>
		<polygon points="29.277,34.723 18.723,40 18.723,29.445 29.277,29.445 		"/>
		<polygon fill="#FFFC00" points="27.519,33.843 20.482,37.361 20.482,29.445 27.519,29.445 		"/>
	</g>
	<g>
		<rect x="5.145" width="37.711" height="9.412"/>
		<rect x="6.904" fill="#FFFC00" width="34.193" height="9.412"/>
	</g>
</g>
</svg>
