<?xml version="1.0" encoding="utf-8"?>
<!-- Generator: Adobe Illustrator 16.0.0, SVG Export Plug-In . SVG Version: 6.00 Build 0)  -->
<!DOCTYPE svg PUBLIC "-//W3C//DTD SVG 1.1//EN" "http://www.w3.org/Graphics/SVG/1.1/DTD/svg11.dtd">
<svg version="1.1" id="Layer_1" xmlns="http://www.w3.org/2000/svg" xmlns:xlink="http://www.w3.org/1999/xlink" x="0px" y="0px"
	 width="48px" height="48px" viewBox="0 0 48 48" enable-background="new 0 0 48 48" xml:space="preserve">
<g transform="translate(0.000000,512.000000) scale(0.100000,-0.100000)">
	<path fill="#FFFFFF" d="M223.062,5118.515c-3.838-1.802-6.963-4.995-8.525-8.833c-1.079-2.573-1.24-14.912-1.24-109.766v-106.87
		l-28.677,28.677c-30.239,30.146-32.261,31.792-38.979,31.87c-5.391,0-10.239-3.125-19.775-12.891
		c-4.756-4.917-9.214-10.156-9.834-11.641c-1.563-3.755-1.401-9.614,0.313-13.359c2.1-4.453,113.428-115.469,117.427-117.188
		c3.745-1.484,8.433-1.484,12.178,0c3.672,1.563,115.156,112.578,117.432,117.109c2.256,4.297,2.1,10.547-0.322,14.761
		c-2.734,4.536-19.141,20.552-22.656,22.036c-3.828,1.563-8.828,1.484-12.656-0.313c-2.031-1.021-12.891-11.245-31.641-30.078
		c-15.703-15.703-28.75-28.594-29.063-28.594s-0.703,48.667-0.781,108.042l-0.234,108.135l-2.256,3.193
		c-1.416,2.036-3.682,3.989-6.182,5.239c-3.828,1.875-4.531,1.953-17.661,1.953C228.208,5120,225.718,5119.77,223.062,5118.515z"/>
	<path fill="#FFFFFF" d="M88.218,4771.328c-1.875-1.016-4.448-3.359-5.781-5.156l-2.344-3.359v-16.094v-16.172l2.266-3.281
		c1.411-2.109,3.594-3.984,6.167-5.313l3.989-1.953h147.344h147.349l3.975,1.953c2.578,1.328,4.766,3.203,6.182,5.313
		c2.256,3.281,2.256,3.281,2.49,17.734c0.156,8.984-0.078,15.547-0.625,17.344c-1.084,3.906-4.375,7.578-8.203,9.297
		c-2.969,1.406-9.219,1.484-151.245,1.484H91.65L88.218,4771.328z"/>
</g>
</svg>
