<?xml version="1.0" encoding="utf-8"?>
<!-- Generator: Adobe Illustrator 16.0.0, SVG Export Plug-In . SVG Version: 6.00 Build 0)  -->
<!DOCTYPE svg PUBLIC "-//W3C//DTD SVG 1.1//EN" "http://www.w3.org/Graphics/SVG/1.1/DTD/svg11.dtd">
<svg version="1.1" id="Layer_1" xmlns="http://www.w3.org/2000/svg" xmlns:xlink="http://www.w3.org/1999/xlink" x="0px" y="0px"
	 width="48px" height="48px" viewBox="0 0 48 48" enable-background="new 0 0 48 48" xml:space="preserve">
<path d="M21.04-14.102"/>
<path d="M3.408-14.842"/>
<g>
	<g>
		<line fill="none" x1="20.731" y1="28.408" x2="27.267" y2="28.408"/>
	</g>
	<polygon points="28.008,26.666 19.989,26.666 13.412,9.237 34.588,9.237 	"/>
	<rect x="13.412" width="21.176" height="7.495"/>
	<rect x="15.155" fill="#EB6824" width="17.69" height="7.495"/>
	<g>
		<path d="M27.267,28.408l-1.07,8.137c-0.25,1.9-1.239,3.455-2.197,3.455c-0.958,0-1.947-1.555-2.198-3.455l-1.07-8.137"/>
	</g>
	<g>
		<path fill="#EB6824" d="M25.524,28.408l-0.46,6.373c-0.138,1.912-0.616,3.477-1.064,3.477s-0.926-1.564-1.065-3.477l-0.46-6.373"
			/>
	</g>
</g>
</svg>
